HIERARCHY
ROOT joint_0
{
	OFFSET 0.000000 0.000000 0.000000
	CHANNELS 6 Xposition Yposition Zposition Zrotation Yrotation Xrotation 
	JOINT joint_1
	{
		OFFSET 3.886261 -0.864090 119.041016
		CHANNELS 3 Zrotation Yrotation Xrotation
		JOINT joint_2
		{
			OFFSET -8.814819 -1.400200 108.366943
			CHANNELS 3 Zrotation Yrotation Xrotation
			JOINT joint_3
			{
				OFFSET -10.127777 -1.846550 108.123047
				CHANNELS 3 Zrotation Yrotation Xrotation
				JOINT joint_4
				{
					OFFSET -0.104309 -2.852760 150.227051
					CHANNELS 3 Zrotation Yrotation Xrotation
					JOINT joint_5
					{
						OFFSET 20.206146 2.292160 92.163940
						CHANNELS 3 Zrotation Yrotation Xrotation
						End Site
						{
							OFFSET 0.000000 0.000000 0.000000
						}
					}
				}
				JOINT joint_6
				{
					OFFSET 0.345886 -34.260384 83.589966
					CHANNELS 3 Zrotation Yrotation Xrotation
					JOINT joint_7
					{
						OFFSET -3.824402 -146.174217 -19.015991
						CHANNELS 3 Zrotation Yrotation Xrotation
						JOINT joint_8
						{
							OFFSET 134.098145 -24.802032 -261.230957
							CHANNELS 3 Zrotation Yrotation Xrotation
							JOINT joint_9
							{
								OFFSET 123.899048 209.340523 59.187012
								CHANNELS 3 Zrotation Yrotation Xrotation
								End Site
								{
									OFFSET 0.000000 0.000000 0.000000
								}
							}
						}
					}
				}
				JOINT joint_10
				{
					OFFSET -0.423798 31.098438 84.831055
					CHANNELS 3 Zrotation Yrotation Xrotation
					JOINT joint_11
					{
						OFFSET 3.093201 146.891491 -12.504028
						CHANNELS 3 Zrotation Yrotation Xrotation
						JOINT joint_12
						{
							OFFSET 195.631927 -20.967743 -219.380981
							CHANNELS 3 Zrotation Yrotation Xrotation
							JOINT joint_13
							{
								OFFSET -8.651001 -247.511261 -36.616089
								CHANNELS 3 Zrotation Yrotation Xrotation
								End Site
								{
									OFFSET 0.000000 0.000000 0.000000
								}
							}
						}
					}
				}
			}
		}
	}
	JOINT joint_14
	{
		OFFSET 6.948090 -87.642914 -106.942017
		CHANNELS 3 Zrotation Yrotation Xrotation
		JOINT joint_15
		{
			OFFSET -34.394226 4.543823 -458.972961
			CHANNELS 3 Zrotation Yrotation Xrotation
			JOINT joint_16
			{
				OFFSET -17.051544 6.964645 -485.636009
				CHANNELS 3 Zrotation Yrotation Xrotation
				JOINT joint_17
				{
					OFFSET 190.520630 40.462875 -83.888000
					CHANNELS 3 Zrotation Yrotation Xrotation
					End Site
					{
						OFFSET 0.000000 0.000000 0.000000
					}
				}
			}
		}
	}
	JOINT joint_18
	{
		OFFSET 3.929901 87.535423 -107.188965
		CHANNELS 3 Zrotation Yrotation Xrotation
		JOINT joint_19
		{
			OFFSET -34.463440 -10.383845 -458.873047
			CHANNELS 3 Zrotation Yrotation Xrotation
			JOINT joint_20
			{
				OFFSET 14.641205 -11.071349 -485.637978
				CHANNELS 3 Zrotation Yrotation Xrotation
				JOINT joint_21
				{
					OFFSET 194.569275 -4.161928 -84.249998
					CHANNELS 3 Zrotation Yrotation Xrotation
					End Site
					{
						OFFSET 0.000000 0.000000 0.000000
					}
				}
			}
		}
	}
}
MOTION
Frames: 7
Frame Time: 0.016667
-124.200127 -17.544022 1117.406006 7.480910 6.774756 -0.530639 0.849407 -6.955680 -0.545968 2.468025 0.911912 0.184031 2.512954 -1.669581 -0.305630 -0.787489 -1.737985 3.512011 0.000000 0.000000 0.000000 -1.016821 4.750887 -1.639695 -13.850115 17.792907 -8.832340 -64.861537 15.030265 -76.007685 0.000000 0.000000 0.000000 1.980336 23.933132 -0.680983 53.522852 16.521270 5.468019 19.761864 8.827705 -40.425339 0.000000 0.000000 0.000000 -0.143923 -19.357709 -12.453014 0.199330 60.865426 10.543163 5.367774 -6.290625 5.271786 0.000000 0.000000 0.000000 -7.270606 -19.691925 17.708383 -0.991522 31.597325 -4.494662 2.609790 -15.520411 0.667179 0.000000 0.000000 0.000000 
-116.128296 -17.063128 1118.635010 7.124576 7.090945 -0.646577 0.741784 -6.801665 0.201589 2.470520 0.919107 0.049811 2.576874 -1.636530 -0.194783 -0.874768 -1.614410 3.859481 0.000000 0.000000 0.000000 -1.129867 5.001290 -1.437750 -13.897206 17.585101 -8.723624 -64.749940 14.825665 -75.342356 0.000000 0.000000 0.000000 1.809281 23.420455 -0.443494 53.623920 16.204036 4.918413 20.940010 9.029468 -38.928451 0.000000 0.000000 0.000000 -0.904176 -20.021113 -12.990237 -0.495373 60.867573 9.511415 2.281326 -8.008756 4.299031 0.000000 0.000000 0.000000 -6.976995 -19.291598 17.596056 -0.771815 31.178226 -4.146658 2.805961 -15.500392 0.744061 0.000000 0.000000 0.000000 
-107.760262 -17.464420 1120.754028 6.390307 7.644499 -0.668321 0.688838 -6.843806 0.865900 2.609282 0.920424 -0.040916 2.767838 -1.662357 -0.119779 -0.914266 -1.421015 4.010240 0.000000 0.000000 0.000000 -1.433989 5.413601 -1.368476 -13.493252 17.302928 -8.381488 -64.413464 14.498628 -74.856947 0.000000 0.000000 0.000000 1.944669 22.809650 -0.262984 53.685164 15.665795 4.730997 21.945372 9.419851 -37.437133 0.000000 0.000000 0.000000 -2.122161 -21.367224 -13.487673 -1.489693 60.440701 7.607200 -2.085183 -9.558452 2.667484 0.000000 0.000000 0.000000 -6.351879 -18.857850 17.196858 -0.375157 30.256042 -3.434017 3.074076 -15.144601 0.855218 0.000000 0.000000 0.000000 
-99.518364 -18.624342 1122.897949 5.475746 8.424278 -0.643258 0.614952 -7.057408 1.491137 2.768417 0.937433 -0.131847 2.982881 -1.725171 -0.053893 -0.943631 -1.230381 4.119284 0.000000 0.000000 0.000000 -1.771143 5.905595 -1.342015 -12.886990 16.964921 -8.047440 -63.917285 14.188837 -74.447631 0.000000 0.000000 0.000000 2.129896 22.182238 -0.162368 53.875399 15.182279 4.569849 22.975030 9.934369 -36.066337 0.000000 0.000000 0.000000 -3.261707 -23.186936 -13.830169 -2.360130 59.556041 5.669152 -5.997444 -10.899331 1.228723 0.000000 0.000000 0.000000 -5.654174 -18.565620 16.819458 0.064039 29.164116 -2.759140 3.324897 -14.649495 0.961802 0.000000 0.000000 0.000000 
-91.757416 -20.532457 1124.545044 4.503272 9.497696 -0.587358 0.500367 -7.516169 2.085629 2.863820 0.992315 -0.250722 3.132515 -1.826627 0.031924 -0.988332 -1.075497 4.289992 0.000000 0.000000 0.000000 -2.059785 6.435186 -1.310960 -12.090574 16.571829 -7.916988 -63.185161 13.997180 -74.166914 0.000000 0.000000 0.000000 2.226878 21.600026 -0.114958 54.324005 15.020545 4.157493 24.177628 10.554212 -34.928935 0.000000 0.000000 0.000000 -3.919017 -25.407745 -13.978539 -2.805934 58.385937 4.222500 -8.398606 -12.139917 0.411275 0.000000 0.000000 0.000000 -5.036096 -18.612456 16.686649 0.449865 28.116101 -2.421827 3.486493 -14.145174 1.033109 0.000000 0.000000 0.000000 
-84.317886 -23.238176 1126.036987 3.416879 10.849099 -0.490493 0.403428 -8.175591 2.605053 2.924586 1.047204 -0.357908 3.227188 -1.974342 0.131800 -1.031884 -0.932427 4.452184 0.000000 0.000000 0.000000 -2.363770 7.030334 -1.308698 -11.029029 16.112133 -7.920649 -62.190857 13.874728 -74.048772 0.000000 0.000000 0.000000 2.340667 21.012363 -0.088811 54.963963 15.100403 3.611250 25.498220 11.321050 -33.959894 0.000000 0.000000 0.000000 -4.300236 -28.016845 -13.942494 -3.047922 56.856883 2.961944 -10.019801 -13.222717 -0.129556 0.000000 0.000000 0.000000 -4.392731 -18.905071 16.656235 0.820852 26.971703 -2.257388 3.589519 -13.538316 1.083223 0.000000 0.000000 0.000000 
-76.866028 -26.404163 1127.057007 2.196365 12.209734 -0.413739 0.352710 -8.733320 3.075502 2.953213 1.092308 -0.437472 3.272674 -2.101412 0.219172 -1.067694 -0.862267 4.589912 0.000000 0.000000 0.000000 -2.593948 7.582617 -1.326964 -10.458352 15.654211 -7.849286 -61.478919 13.830356 -73.558492 0.000000 0.000000 0.000000 2.453971 20.338205 -0.071215 55.710266 15.150642 3.208564 26.824544 12.186796 -33.022961 0.000000 0.000000 0.000000 -4.358388 -30.699842 -13.863472 -3.074327 55.179604 1.994129 -10.850168 -13.933204 -0.430066 0.000000 0.000000 0.000000 -3.690540 -19.152025 16.605148 1.222015 25.804628 -2.088210 3.728221 -12.981149 1.146169 0.000000 0.000000 0.000000 
